<?xml version="1.0" standalone="no"?>
<!DOCTYPE svg PUBLIC "-//W3C//DTD SVG 20010904//EN"
 "http://www.w3.org/TR/2001/REC-SVG-20010904/DTD/svg10.dtd">
<svg version="1.0" xmlns="http://www.w3.org/2000/svg"
 width="507.000000pt" height="514.000000pt" viewBox="0 0 507.000000 514.000000"
 preserveAspectRatio="xMidYMid meet">

<g transform="translate(0.000000,514.000000) scale(0.100000,-0.100000)"
fill="#000000" stroke="none">
<path d="M2353 4910 c-148 -203 -291 -400 -307 -425 -11 -16 -427 -584 -926
-1260 -498 -677 -909 -1235 -912 -1240 -3 -6 98 -86 225 -180 439 -320 1652
-1216 1891 -1395 132 -99 241 -178 244 -176 3 4 -102 729 -113 782 -3 14 -244
197 -724 550 -396 291 -718 534 -716 540 1 6 326 449 721 985 394 536 733 995
751 1020 l33 47 -60 393 c-33 217 -62 398 -63 404 -2 5 -21 -15 -44 -45z"/>
<path d="M2534 4933 c3 -16 29 -197 58 -403 l52 -375 689 -515 c378 -283 701
-526 718 -540 l29 -25 -766 -1020 -765 -1019 56 -391 c31 -214 58 -396 61
-404 4 -14 135 155 316 406 50 71 498 671 995 1334 496 664 903 1210 903 1215
0 5 -134 108 -297 229 -545 404 -1578 1178 -1588 1190 -13 16 -453 345 -461
345 -3 0 -3 -12 0 -27z"/>
</g>
</svg>
